<mxfile host="app.diagrams.net" modified="2020-09-13T13:47:18.847Z" agent="5.0 (Windows NT 10.0; Win64; x64) AppleWebKit/537.36 (KHTML, like Gecko) Chrome/87.0.4262.0 Safari/537.36" etag="tz73wSQG3adaH5ReBogx" version="13.6.10" type="github">
  <diagram id="ca19I_yiCBgmw5bgkrrT" name="Page-1">
    <mxGraphModel dx="1038" dy="948" grid="0" gridSize="10" guides="1" tooltips="1" connect="1" arrows="1" fold="1" page="0" pageScale="1" pageWidth="827" pageHeight="1169" math="0" shadow="0">
      <root>
        <mxCell id="0" />
        <mxCell id="1" parent="0" />
        <mxCell id="h6cpHLvueDqFhHNppa8h-2" value="&lt;span style=&quot;font-size: 14px&quot;&gt;&amp;lt;&amp;lt; interface &amp;gt;&amp;gt;&lt;/span&gt;&lt;br style=&quot;font-size: 14px&quot;&gt;&lt;span style=&quot;font-size: 14px&quot;&gt;SpeciesAnimalFactory&lt;/span&gt;" style="rounded=0;whiteSpace=wrap;html=1;" vertex="1" parent="1">
          <mxGeometry x="324" y="-336" width="157" height="60" as="geometry" />
        </mxCell>
      </root>
    </mxGraphModel>
  </diagram>
</mxfile>
